HIERARCHY
ROOT Hips
{
	OFFSET 0.00000 0.00000 0.00000
	CHANNELS 6 Xposition Yposition Zposition Zrotation Yrotation Xrotation 
	JOINT LHipJoint
	{
		OFFSET 0 0 0
		CHANNELS 3 Zrotation Yrotation Xrotation
		JOINT LeftUpLeg
		{
			OFFSET 1.64577 -1.42384 0.94276
			CHANNELS 3 Zrotation Yrotation Xrotation
			JOINT LeftLeg
			{
				OFFSET 2.11538 -5.81197 0.00000
				CHANNELS 3 Zrotation Yrotation Xrotation
				JOINT LeftFoot
				{
					OFFSET 2.36541 -6.49893 0.00000
					CHANNELS 3 Zrotation Yrotation Xrotation
					JOINT LeftToeBase
					{
						OFFSET 0.17759 -0.48793 1.73865
						CHANNELS 3 Zrotation Yrotation Xrotation
						End Site
						{
							OFFSET 0.00000 -0.00000 0.91205
						}
					}
				}
			}
		}
	}
	JOINT RHipJoint
	{
		OFFSET 0 0 0
		CHANNELS 3 Zrotation Yrotation Xrotation
		JOINT RightUpLeg
		{
			OFFSET -1.43750 -1.42384 0.94276
			CHANNELS 3 Zrotation Yrotation Xrotation
			JOINT RightLeg
			{
				OFFSET -2.10480 -5.78291 0.00000
				CHANNELS 3 Zrotation Yrotation Xrotation
				JOINT RightFoot
				{
					OFFSET -2.34880 -6.45329 0.00000
					CHANNELS 3 Zrotation Yrotation Xrotation
					JOINT RightToeBase
					{
						OFFSET -0.22842 -0.62757 1.80469
						CHANNELS 3 Zrotation Yrotation Xrotation
						End Site
						{
							OFFSET -0.00000 -0.00000 0.95886
						}
					}
				}
			}
		}
	}
	JOINT LowerBack
	{
		OFFSET 0 0 0
		CHANNELS 3 Zrotation Yrotation Xrotation
		JOINT Spine
		{
			OFFSET 0.06217 1.93758 -0.49272
			CHANNELS 3 Zrotation Yrotation Xrotation
			JOINT Spine1
			{
				OFFSET -0.03114 2.03621 -0.05830
				CHANNELS 3 Zrotation Yrotation Xrotation
				JOINT Neck
				{
					OFFSET 0 0 0
					CHANNELS 3 Zrotation Yrotation Xrotation
					JOINT Neck1
					{
						OFFSET 0.04421 1.41010 0.26562
						CHANNELS 3 Zrotation Yrotation Xrotation
						JOINT Head
						{
							OFFSET -0.13407 1.43847 0.06181
							CHANNELS 3 Zrotation Yrotation Xrotation
							End Site
							{
								OFFSET -0.04980 1.45844 -0.00689
							}
						}
					}
				}
				JOINT LeftShoulder
				{
					OFFSET 0 0 0
					CHANNELS 3 Zrotation Yrotation Xrotation
					JOINT LeftArm
					{
						OFFSET 2.18382 1.47753 -0.35694
						CHANNELS 3 Zrotation Yrotation Xrotation
						JOINT LeftForeArm
						{
							OFFSET 5.05460 -0.00000 0.00000
							CHANNELS 3 Zrotation Yrotation Xrotation
							JOINT LeftHand
							{
								OFFSET 3.39013 -0.00000 0.00000
								CHANNELS 3 Zrotation Yrotation Xrotation
								JOINT LeftFingerBase
								{
									OFFSET 0 0 0
									CHANNELS 3 Zrotation Yrotation Xrotation
									JOINT LeftHandIndex1
									{
										OFFSET 0.57242 -0.00000 -0.00000
										CHANNELS 3 Zrotation Yrotation Xrotation
										End Site
										{
											OFFSET 0.46150 -0.00000 -0.00000
										}
									}
								}
								JOINT LThumb
								{
									OFFSET 0 0 0
									CHANNELS 3 Zrotation Yrotation Xrotation
									End Site
									{
										OFFSET 0.46855 -0.00000 0.46855
									}
								}
							}
						}
					}
				}
				JOINT RightShoulder
				{
					OFFSET 0 0 0
					CHANNELS 3 Zrotation Yrotation Xrotation
					JOINT RightArm
					{
						OFFSET -2.06033 1.72839 -0.47437
						CHANNELS 3 Zrotation Yrotation Xrotation
						JOINT RightForeArm
						{
							OFFSET -5.07010 -0.00000 0.00000
							CHANNELS 3 Zrotation Yrotation Xrotation
							JOINT RightHand
							{
								OFFSET -3.14957 -0.00000 -0.00000
								CHANNELS 3 Zrotation Yrotation Xrotation
								JOINT RightFingerBase
								{
									OFFSET 0 0 0
									CHANNELS 3 Zrotation Yrotation Xrotation
									JOINT RightHandIndex1
									{
										OFFSET -0.71819 -0.00000 -0.00000
										CHANNELS 3 Zrotation Yrotation Xrotation
										End Site
										{
											OFFSET -0.57902 -0.00000 -0.00000
										}
									}
								}
								JOINT RThumb
								{
									OFFSET 0 0 0
									CHANNELS 3 Zrotation Yrotation Xrotation
									End Site
									{
										OFFSET -0.58786 -0.00000 0.58786
									}
								}
							}
						}
					}
				}
			}
		}
	}
}
MOTION
Frames: 7
Frame Time: .0083333
20.3143 15.4061 0.1202 180.2550 -86.1901 -179.6030 0.0000 0.0000 0.0000 -16.1623 -19.0952 -2.6673 1.8287 8.4998 24.2426 0.4602 16.3616 -27.1250 0.4613 -4.3566 -12.0820 0.0000 0.0000 0.0000 17.1144 13.5248 -2.4640 -1.7160 -8.2476 23.4686 -1.0250 -18.5623 -33.3443 -2.0008 8.8678 -25.3825 -3.0028 2.3647 6.3005 -2.2639 2.8435 4.7402 -0.7940 1.3095 1.3288 7.8218 3.2887 -2.1158 -4.3036 4.0190 -8.1294 -2.7903 1.8200 -1.9739 -0.0000 0.0000 0.0000 -79.0324 -2.8939 47.0626 24.7525 -35.9499 -8.1441 -0.0000 0.0000 -0.4291 22.0485 6.3744 2.5746 -7.1250 0.0000 -0.0000 -3.9747 36.8271 0.8006 -0.0000 0.0000 0.0000 75.0966 1.8375 62.6815 -51.9154 53.7394 -27.7113 0.0000 -0.0000 -38.7030 -19.3621 -3.3279 1.1687 7.1250 -0.0000 -0.0000 5.9193 -33.4642 1.6817
20.3151 15.4042 0.1022 181.2980 -86.1437 -180.7030 0.0000 0.0000 0.0000 -16.0275 -19.0480 -2.6363 1.8349 8.5134 24.2846 0.4569 16.3911 -27.1346 0.4639 -4.3688 -12.1165 0.0000 0.0000 0.0000 17.2958 13.5588 -2.4185 -1.7210 -8.2590 23.5034 -1.0261 -18.5879 -33.3780 -1.9787 8.8215 -25.2384 -2.8908 2.3636 6.3501 -2.2713 2.8445 4.7561 -0.8657 1.3124 1.3233 7.8523 3.3006 -2.1424 -4.2780 4.0330 -8.1483 -2.7870 1.8246 -1.9745 -0.0000 0.0000 0.0000 -78.9440 -2.7414 47.6193 25.7502 -36.9610 -8.7370 -0.0000 0.0000 -0.4352 21.5955 5.9749 2.3594 -7.1250 0.0000 -0.0000 -4.3181 36.3731 0.9181 -0.0000 0.0000 0.0000 75.2117 1.9790 62.8037 -52.9577 54.1209 -28.5538 0.0000 -0.0000 -38.7911 -19.5395 -2.8927 1.0260 7.1250 -0.0000 -0.0000 5.7379 -33.0108 1.6929
20.3163 15.4019 0.0859 181.9560 -86.1009 -181.4340 0.0000 0.0000 0.0000 -15.9267 -18.9710 -2.5950 1.8400 8.5244 24.3187 0.4553 16.3839 -27.1139 0.4603 -4.3519 -12.0687 0.0000 0.0000 0.0000 17.4357 13.5505 -2.3861 -1.7286 -8.2762 23.5563 -1.0230 -18.6057 -33.3778 -1.9689 8.8010 -25.1746 -2.8006 2.3716 6.4269 -2.2717 2.8551 4.7707 -0.9197 1.3196 1.3001 7.8624 3.3078 -2.1820 -4.2453 4.0406 -8.1494 -2.7767 1.8266 -1.9677 0.0000 0.0000 0.0000 -78.8925 -2.6582 48.1697 26.7489 -37.9387 -9.3443 -0.0000 0.0000 -0.2773 21.3208 5.6459 2.1990 -7.1250 0.0000 -0.0000 -4.5171 36.0066 1.0011 0.0000 0.0000 0.0000 75.3086 2.0732 62.8663 -54.0571 54.5063 -29.4468 0.0000 -0.0000 -38.9311 -19.6709 -2.5523 0.9120 7.1250 -0.0000 -0.0000 5.6041 -32.6551 1.7014
20.3176 15.3996 0.0713 182.1800 -86.0572 -181.7470 0.0000 0.0000 0.0000 -15.8698 -18.8824 -2.5228 1.8420 8.5290 24.3326 0.4571 16.3409 -27.0773 0.4465 -4.2874 -11.8867 0.0000 0.0000 0.0000 17.5310 13.5118 -2.3702 -1.7391 -8.3000 23.6291 -1.0024 -18.6641 -33.3174 -1.9840 8.8327 -25.2734 -2.7437 2.3851 6.5274 -2.2663 2.8702 4.7847 -0.9506 1.3282 1.2612 7.8533 3.3145 -2.2229 -4.2126 4.0478 -8.1383 -2.7626 1.8294 -1.9570 0.0000 -0.0000 0.0000 -78.8813 -2.6281 48.6911 27.7495 -38.8846 -9.9660 -0.0000 0.0000 -0.0007 21.0637 5.4037 2.0772 -7.1250 0.0000 -0.0000 -4.7088 35.7350 1.0751 0.0000 -0.0000 0.0000 75.3846 2.1363 62.8932 -55.1879 54.8850 -30.3696 0.0000 -0.0000 -39.1192 -19.7615 -2.3603 0.8477 7.1250 -0.0000 -0.0000 5.5161 -32.4546 1.7013
20.3189 15.3975 0.0581 182.3160 -86.0111 -181.9780 0.0000 0.0000 0.0000 -15.8306 -18.8020 -2.4205 1.8409 8.5265 24.3249 0.4615 16.2892 -27.0506 0.4277 -4.1972 -11.6321 0.0000 0.0000 0.0000 17.6125 13.4703 -2.3640 -1.7515 -8.3280 23.7149 -0.9662 -18.7730 -33.2173 -2.0191 8.9057 -25.5009 -2.7033 2.3972 6.6358 -2.2492 2.8821 4.8048 -0.9602 1.3344 1.2231 7.8365 3.3279 -2.2639 -4.1958 4.0629 -8.1324 -2.7525 1.8366 -1.9473 -0.0000 0.0000 0.0000 -78.9087 -2.6582 49.1681 28.7628 -39.8090 -10.6085 -0.0000 -0.0000 0.3079 20.8175 5.2564 1.9949 -7.1250 0.0000 -0.0000 -4.8999 35.5659 1.1393 -0.0000 0.0000 0.0000 75.4354 2.2061 62.9113 -56.3271 55.2490 -31.3036 0.0000 -0.0000 -39.3578 -19.8901 -2.1586 0.7807 7.1250 -0.0000 -0.0000 5.3974 -32.2443 1.6919
20.3199 15.3954 0.0463 182.5070 -85.9621 -182.2610 0.0000 0.0000 0.0000 -15.7958 -18.7434 -2.3029 1.8376 8.5193 24.3028 0.4660 16.2626 -27.0543 0.4133 -4.1269 -11.4339 0.0000 0.0000 0.0000 17.6930 13.4398 -2.3605 -1.7643 -8.3569 23.8035 -0.9295 -18.8850 -33.1176 -2.0593 8.9885 -25.7595 -2.6682 2.4036 6.7289 -2.2207 2.8874 4.8361 -0.9540 1.3368 1.2042 7.8309 3.3520 -2.3015 -4.2113 4.0902 -8.1475 -2.7560 1.8497 -1.9436 -0.0000 -0.0000 0.0000 -78.9629 -2.7514 49.6067 29.7977 -40.7194 -11.2774 -0.0000 -0.0000 0.5935 20.5912 5.1537 1.9329 -7.1250 0.0000 -0.0000 -5.0781 35.4457 1.1959 -0.0000 -0.0000 0.0000 75.4645 2.3134 62.9424 -57.4361 55.5871 -32.2167 0.0000 -0.0000 -39.6107 -20.0594 -1.9483 0.7112 7.1250 -0.0000 -0.0000 5.2463 -32.0255 1.6719
20.3207 15.3937 0.0358 182.6140 -85.9182 -182.4400 0.0000 0.0000 0.0000 -15.7726 -18.7149 -2.1917 1.8335 8.5104 24.2753 0.4714 16.2588 -27.0914 0.4041 -4.0813 -11.3055 0.0000 0.0000 0.0000 17.7584 13.4175 -2.3646 -1.7768 -8.3849 23.8893 -0.9076 -18.9475 -33.0535 -2.0889 9.0488 -25.9480 -2.6392 2.4052 6.7874 -2.1923 2.8877 4.8743 -0.9426 1.3363 1.2113 7.8512 3.3845 -2.3182 -4.2561 4.1277 -8.1971 -2.7754 1.8672 -1.9533 -0.0000 0.0000 0.0000 -79.0189 -2.8974 50.0355 30.8633 -41.6220 -11.9789 -0.0000 -0.0000 0.8246 20.4080 5.0277 1.8675 -7.1250 0.0000 -0.0000 -5.2180 35.3033 1.2472 -0.0000 0.0000 0.0000 75.4927 2.4549 62.9809 -58.4857 55.8927 -33.0841 0.0000 -0.0000 -39.8227 -20.2841 -1.7200 0.6356 7.1250 -0.0000 -0.0000 5.0505 -31.7879 1.6380
